<?xml version="1.0" encoding="utf-8"?>
<svg viewBox="273.6 389.7 652.82 420.6" width="652.82" height="420.6" xmlns="http://www.w3.org/2000/svg">
  <defs>
    <style type="text/css">
	.st0{fill:#E72064;}
	.st1{fill:url(#SVGID_1_);}
	.st2{fill:url(#SVGID_2_);}
	.st3{fill:url(#SVGID_3_);}
	.st4{fill:url(#SVGID_4_);}
	.st5{fill:url(#SVGID_5_);}
	.st6{fill:url(#SVGID_6_);}
	.st7{fill:url(#SVGID_7_);}
	.st8{fill:url(#SVGID_8_);}
	.st9{fill:url(#SVGID_9_);}
	.st10{fill:url(#SVGID_10_);}
	.st11{fill:url(#SVGID_11_);}
	.st12{fill:url(#SVGID_12_);}
	.st13{fill:url(#SVGID_13_);}
	.st14{fill:url(#SVGID_14_);}
	.st15{fill:url(#SVGID_15_);}
	.st16{fill:url(#SVGID_16_);}
	.st17{fill:url(#SVGID_17_);}
	.st18{fill:url(#SVGID_18_);}
	.st19{fill:url(#SVGID_19_);}
	.st20{fill:url(#SVGID_20_);}
	.st21{fill:url(#SVGID_21_);}
	.st22{fill:url(#SVGID_22_);}
	.st23{fill:url(#SVGID_23_);}
	.st24{fill:url(#SVGID_24_);}
	.st25{fill:url(#SVGID_25_);}
	.st26{fill:url(#SVGID_26_);}
	.st27{fill:url(#SVGID_27_);}
	.st28{fill:url(#SVGID_28_);}
	.st29{fill:url(#SVGID_29_);}
	.st30{fill:url(#SVGID_30_);}
	.st31{fill:url(#SVGID_31_);}
	.st32{fill:url(#SVGID_32_);}
	.st33{fill:url(#SVGID_33_);}
	.st34{fill:url(#SVGID_34_);}
	.st35{fill:url(#SVGID_35_);}
	.st36{fill:url(#SVGID_36_);}
	.st37{fill:url(#SVGID_37_);}
	.st38{fill:url(#SVGID_38_);}
	.st39{fill:url(#SVGID_39_);}
</style>
  </defs>
  <g>
    <g>
      <g>
        <path class="st0" d="M380.35,810.3c-0.62,0-1.11-0.14-1.48-0.41c-0.36-0.28-0.58-0.66-0.65-1.14c-0.07-0.49,0.04-1.02,0.31-1.61 l14.14-32.01c0.31-0.73,0.71-1.25,1.19-1.58c0.48-0.33,1.02-0.49,1.61-0.49c0.59,0,1.12,0.17,1.58,0.49 c0.47,0.33,0.87,0.85,1.22,1.58l14.14,32.01c0.28,0.59,0.39,1.13,0.34,1.63c-0.05,0.5-0.25,0.88-0.6,1.14 c-0.34,0.26-0.83,0.39-1.45,0.39c-0.69,0-1.24-0.18-1.66-0.55c-0.41-0.36-0.78-0.89-1.09-1.58l-3.68-8.6l2.23,1.24h-22.17 l2.23-1.24l-3.68,8.6c-0.31,0.76-0.66,1.3-1.04,1.63C381.47,810.14,380.97,810.3,380.35,810.3z M395.38,778.86l-8.08,19.12 l-1.24-1.09h18.75l-1.19,1.09l-8.13-19.12H395.38z"/>
        <path class="st0" d="M431.58,810.3c-0.76,0-1.35-0.22-1.76-0.65c-0.41-0.43-0.62-1.05-0.62-1.84v-32.27 c0-0.83,0.21-1.45,0.62-1.86s1-0.62,1.76-0.62c0.79,0,1.4,0.21,1.81,0.62c0.41,0.41,0.62,1.04,0.62,1.86v32.27 c0,0.8-0.2,1.41-0.6,1.84C433.02,810.08,432.41,810.3,431.58,810.3z"/>
        <path class="st0" d="M479.55,810.3c-0.8,0-1.42-0.23-1.86-0.67s-0.67-1.09-0.67-1.92v-31.7c0-0.83,0.23-1.47,0.67-1.92 s1.09-0.67,1.92-0.67h18.6c0.69,0,1.21,0.17,1.55,0.49c0.35,0.33,0.52,0.8,0.52,1.43c0,0.65-0.17,1.16-0.52,1.5 c-0.34,0.35-0.86,0.52-1.55,0.52h-16.37v12.23h15.33c0.66,0,1.16,0.17,1.5,0.52c0.34,0.35,0.52,0.81,0.52,1.4 c0,0.65-0.17,1.16-0.52,1.5c-0.35,0.35-0.85,0.52-1.5,0.52h-15.33v14.19C481.83,809.44,481.07,810.3,479.55,810.3z"/>
        <path class="st0" d="M518.29,810.3c-0.76,0-1.35-0.22-1.76-0.65c-0.41-0.43-0.62-1.05-0.62-1.84v-32.27 c0-0.83,0.21-1.45,0.62-1.86c0.41-0.41,1-0.62,1.76-0.62c0.8,0,1.4,0.21,1.81,0.62s0.62,1.04,0.62,1.86v32.27 c0,0.8-0.2,1.41-0.59,1.84C519.74,810.08,519.12,810.3,518.29,810.3z"/>
        <path class="st0" d="M542.23,810.3c-0.76,0-1.35-0.22-1.76-0.65c-0.41-0.43-0.62-1.05-0.62-1.84v-31.96 c0-0.79,0.22-1.4,0.65-1.81c0.43-0.41,1.03-0.62,1.79-0.62h12.33c3.94,0,6.97,0.93,9.09,2.77c2.12,1.85,3.19,4.47,3.19,7.85 c0,2.21-0.49,4.1-1.45,5.67c-0.97,1.57-2.37,2.77-4.2,3.6c-1.83,0.83-4.04,1.24-6.63,1.24l0.52-0.73h1.14 c1.38,0,2.58,0.35,3.6,1.04c1.02,0.69,1.93,1.8,2.72,3.32l4.77,8.75c0.31,0.55,0.45,1.09,0.41,1.61 c-0.03,0.52-0.23,0.94-0.57,1.27c-0.35,0.33-0.85,0.49-1.5,0.49c-0.69,0-1.24-0.15-1.66-0.44c-0.41-0.29-0.78-0.73-1.09-1.32 l-5.59-10.26c-0.76-1.45-1.63-2.41-2.59-2.87c-0.97-0.47-2.26-0.7-3.89-0.7h-6.22v13.11c0,0.8-0.2,1.41-0.59,1.84 C543.67,810.08,543.06,810.3,542.23,810.3z M544.66,790.98h9.17c2.76,0,4.84-0.58,6.22-1.73c1.38-1.16,2.07-2.86,2.07-5.1 c0-2.25-0.69-3.94-2.07-5.08c-1.38-1.14-3.45-1.71-6.22-1.71h-9.17V790.98z"/>
        <path class="st0" d="M587.35,810.3c-0.69,0-1.23-0.21-1.61-0.62c-0.38-0.41-0.57-0.96-0.57-1.66v-32.69 c0-0.73,0.2-1.29,0.59-1.68c0.4-0.4,0.94-0.6,1.63-0.6c0.62,0,1.11,0.12,1.48,0.36c0.36,0.24,0.7,0.66,1.01,1.24l13.88,26.06 h-1.61l13.88-26.06c0.31-0.59,0.64-1,0.98-1.24c0.34-0.24,0.83-0.36,1.45-0.36c0.69,0,1.22,0.2,1.61,0.6 c0.38,0.39,0.57,0.96,0.57,1.68v32.69c0,0.69-0.18,1.24-0.54,1.66c-0.36,0.41-0.91,0.62-1.63,0.62c-0.73,0-1.27-0.21-1.63-0.62 c-0.36-0.41-0.54-0.96-0.54-1.66V780.1h1.14l-12.43,23.26c-0.28,0.45-0.56,0.79-0.85,1.01c-0.29,0.23-0.7,0.34-1.22,0.34 c-0.48,0-0.89-0.12-1.22-0.36c-0.33-0.24-0.61-0.57-0.85-0.98l-12.59-23.31h1.24v27.97c0,0.69-0.18,1.24-0.54,1.66 C588.61,810.09,588.07,810.3,587.35,810.3z"/>
        <path class="st0" d="M651.84,810.3c-0.69,0-1.24-0.18-1.66-0.52s-0.76-0.9-1.04-1.66l-11.29-32.22c-0.31-0.8-0.27-1.47,0.13-2.02 c0.4-0.55,1.06-0.83,1.99-0.83c0.66,0,1.17,0.16,1.55,0.47c0.38,0.31,0.69,0.83,0.93,1.55l10.41,30.56h-1.86l10.67-30.46 c0.28-0.73,0.6-1.26,0.98-1.61c0.38-0.35,0.88-0.52,1.5-0.52c0.66,0,1.17,0.17,1.53,0.52c0.36,0.34,0.66,0.9,0.9,1.66 l10.46,30.41h-1.66l10.52-30.56c0.24-0.69,0.55-1.2,0.93-1.53c0.38-0.33,0.91-0.49,1.61-0.49c0.8,0,1.38,0.28,1.76,0.83 c0.38,0.55,0.43,1.22,0.16,2.02l-11.4,32.27c-0.24,0.73-0.57,1.26-0.98,1.61c-0.41,0.34-0.97,0.52-1.66,0.52 c-0.73,0-1.29-0.18-1.71-0.52c-0.41-0.34-0.76-0.9-1.04-1.66l-10.1-29.01h1.14l-10.15,29.06c-0.28,0.73-0.61,1.26-1.01,1.61 C653.07,810.13,652.53,810.3,651.84,810.3z"/>
        <path class="st0" d="M704,810.3c-0.62,0-1.11-0.14-1.48-0.41c-0.36-0.28-0.58-0.66-0.65-1.14c-0.07-0.49,0.03-1.02,0.31-1.61 l14.14-32.01c0.31-0.73,0.7-1.25,1.19-1.58c0.48-0.33,1.02-0.49,1.61-0.49s1.11,0.17,1.58,0.49c0.47,0.33,0.87,0.85,1.22,1.58 l14.14,32.01c0.28,0.59,0.39,1.13,0.34,1.63c-0.05,0.5-0.25,0.88-0.6,1.14c-0.34,0.26-0.83,0.39-1.45,0.39 c-0.69,0-1.24-0.18-1.66-0.55c-0.41-0.36-0.78-0.89-1.09-1.58l-3.68-8.6l2.23,1.24h-22.17l2.23-1.24l-3.68,8.6 c-0.31,0.76-0.66,1.3-1.04,1.63C705.12,810.14,704.62,810.3,704,810.3z M719.02,778.86l-8.08,19.12l-1.24-1.09h18.75l-1.19,1.09 l-8.13-19.12H719.02z"/>
        <path class="st0" d="M755.23,810.3c-0.76,0-1.35-0.22-1.76-0.65c-0.41-0.43-0.62-1.05-0.62-1.84v-31.96 c0-0.79,0.21-1.4,0.65-1.81c0.43-0.41,1.03-0.62,1.79-0.62h12.33c3.94,0,6.97,0.93,9.09,2.77c2.12,1.85,3.19,4.47,3.19,7.85 c0,2.21-0.49,4.1-1.45,5.67c-0.96,1.57-2.36,2.77-4.2,3.6c-1.83,0.83-4.04,1.24-6.63,1.24l0.52-0.73h1.14 c1.38,0,2.58,0.35,3.6,1.04c1.02,0.69,1.93,1.8,2.72,3.32l4.77,8.75c0.31,0.55,0.45,1.09,0.41,1.61 c-0.04,0.52-0.23,0.94-0.57,1.27c-0.35,0.33-0.85,0.49-1.5,0.49c-0.69,0-1.24-0.15-1.66-0.44s-0.78-0.73-1.09-1.32l-5.59-10.26 c-0.76-1.45-1.62-2.41-2.59-2.87c-0.97-0.47-2.26-0.7-3.89-0.7h-6.22v13.11c0,0.8-0.2,1.41-0.6,1.84 C756.67,810.08,756.06,810.3,755.23,810.3z M757.67,790.98h9.17c2.76,0,4.83-0.58,6.22-1.73c1.38-1.16,2.07-2.86,2.07-5.1 c0-2.25-0.69-3.94-2.07-5.08c-1.38-1.14-3.45-1.71-6.22-1.71h-9.17V790.98z"/>
        <path class="st0" d="M800.66,809.94c-0.83,0-1.47-0.22-1.92-0.67c-0.45-0.45-0.67-1.09-0.67-1.92v-31.34 c0-0.83,0.22-1.47,0.67-1.92s1.09-0.67,1.92-0.67h19.06c0.65,0,1.17,0.17,1.53,0.49c0.36,0.33,0.54,0.8,0.54,1.43 c0,0.65-0.18,1.16-0.54,1.5c-0.36,0.35-0.87,0.52-1.53,0.52h-16.99v12.07h15.9c0.65,0,1.15,0.18,1.5,0.52 c0.34,0.35,0.52,0.83,0.52,1.45c0,0.66-0.18,1.15-0.52,1.48c-0.35,0.33-0.85,0.49-1.5,0.49h-15.9V806h16.99 c0.65,0,1.17,0.16,1.53,0.49c0.36,0.33,0.54,0.82,0.54,1.47c0,0.66-0.18,1.15-0.54,1.48c-0.36,0.33-0.87,0.49-1.53,0.49H800.66z"/>
      </g>
    </g>
    <g>
      <path d="M282.26,739.02c-2.78,0-4.92-0.77-6.41-2.3c-1.5-1.53-2.25-3.65-2.25-6.36v-60.17c0-2.85,0.73-5,2.19-6.47 c1.46-1.46,3.58-2.19,6.36-2.19c2.7,0,4.79,0.73,6.25,2.19c1.46,1.46,2.19,3.62,2.19,6.47v54.47h29.37c2.34,0,4.15,0.62,5.42,1.87 c1.28,1.24,1.92,2.99,1.92,5.26c0,2.34-0.64,4.13-1.92,5.37c-1.28,1.24-3.09,1.86-5.42,1.86H282.26z"/>
      <path d="M337.28,740c-2.05,0-3.71-0.47-4.99-1.43c-1.28-0.95-2.08-2.23-2.41-3.83c-0.33-1.61-0.02-3.4,0.93-5.37l28.06-61.49 c1.17-2.48,2.56-4.29,4.16-5.42c1.61-1.13,3.47-1.7,5.59-1.7c2.12,0,3.98,0.57,5.59,1.7c1.61,1.13,2.96,2.94,4.06,5.42 l28.28,61.49c0.95,1.97,1.3,3.78,1.04,5.43c-0.26,1.64-1,2.92-2.25,3.84c-1.24,0.91-2.85,1.37-4.82,1.37 c-2.48,0-4.4-0.59-5.75-1.75c-1.35-1.17-2.54-2.99-3.56-5.48l-6.58-15.24l6.8,4.71h-45.71l6.8-4.71l-6.47,15.24 c-1.1,2.56-2.25,4.4-3.45,5.54C341.39,739.44,339.62,740,337.28,740z M368.41,679.83l-14.03,33.43l-2.96-4.27h34.31l-2.96,4.27 l-14.14-33.43H368.41z"/>
      <path d="M439.32,740c-2.34,0-4.24-0.57-5.7-1.7c-1.46-1.13-2.63-2.87-3.51-5.21l-22.14-62.26c-0.95-2.78-0.75-5.15,0.6-7.12 c1.35-1.97,3.71-2.96,7.07-2.96c2.34,0,4.15,0.55,5.43,1.64c1.28,1.1,2.32,2.81,3.12,5.15l18.09,53.82h-4.71l19.07-53.71 c0.88-2.34,1.95-4.07,3.23-5.21c1.28-1.13,2.98-1.7,5.1-1.7c2.04,0,3.69,0.57,4.93,1.7c1.24,1.13,2.3,2.9,3.18,5.31l18.19,53.6 h-4.06l18.41-53.82c0.73-2.26,1.75-3.96,3.07-5.1c1.31-1.13,3.11-1.7,5.37-1.7c2.85,0,4.93,0.99,6.25,2.96 c1.31,1.97,1.46,4.35,0.44,7.12l-22.36,62.37c-0.8,2.26-1.9,3.96-3.29,5.1c-1.39,1.13-3.29,1.7-5.7,1.7c-2.34,0-4.2-0.57-5.59-1.7 c-1.39-1.13-2.52-2.87-3.4-5.21l-17.32-49h2.63l-17.54,49.1c-0.88,2.26-1.99,3.96-3.34,5.1C443.5,739.44,441.66,740,439.32,740z"/>
      <path d="M542.35,739.02c-2.85,0-5.04-0.77-6.58-2.3s-2.3-3.72-2.3-6.58v-59.51c0-2.85,0.77-5.04,2.3-6.58 c1.53-1.53,3.73-2.3,6.58-2.3h26.53c5.48,0,10.16,0.8,14.03,2.41s6.81,3.91,8.82,6.9c2.01,3,3.01,6.58,3.01,10.74 c0,4.6-1.31,8.51-3.94,11.73c-2.63,3.22-6.25,5.37-10.85,6.47v-1.75c5.33,0.95,9.48,3.05,12.44,6.3 c2.96,3.25,4.44,7.47,4.44,12.66c0,6.87-2.38,12.22-7.12,16.06c-4.75,3.84-11.29,5.75-19.62,5.75H542.35z M549.69,693.53h16.22 c4.24,0,7.38-0.8,9.43-2.41c2.04-1.61,3.07-4.02,3.07-7.23c0-3.14-1.02-5.52-3.07-7.12c-2.05-1.61-5.19-2.41-9.43-2.41h-16.22 V693.53z M549.69,726.41h18.09c4.38,0,7.6-0.86,9.65-2.58c2.04-1.72,3.07-4.25,3.07-7.62c0-3.36-1.02-5.88-3.07-7.56 c-2.05-1.68-5.26-2.52-9.65-2.52h-18.09V726.41z"/>
      <path d="M645.49,740.22c-7.6,0-14.27-1.66-20-4.99c-5.74-3.32-10.19-7.98-13.37-13.97c-3.18-5.99-4.77-12.97-4.77-20.94 c0-6.06,0.89-11.53,2.68-16.39c1.79-4.86,4.37-9.02,7.73-12.49c3.36-3.47,7.4-6.16,12.11-8.06s9.92-2.85,15.62-2.85 c7.74,0,14.47,1.64,20.17,4.93c5.7,3.29,10.14,7.91,13.32,13.86c3.18,5.96,4.77,12.92,4.77,20.88c0,6.07-0.91,11.55-2.74,16.44 c-1.83,4.9-4.42,9.1-7.78,12.61c-3.36,3.51-7.38,6.21-12.06,8.11C656.48,739.27,651.26,740.22,645.49,740.22z M645.49,725.75 c4.31,0,7.98-1.01,11.02-3.01c3.03-2.01,5.37-4.93,7.01-8.77c1.64-3.84,2.47-8.38,2.47-13.65c0-8.04-1.79-14.26-5.37-18.69 c-3.58-4.42-8.62-6.63-15.13-6.63c-4.24,0-7.89,0.99-10.96,2.96c-3.07,1.97-5.41,4.86-7.02,8.66c-1.61,3.8-2.41,8.37-2.41,13.7 c0,7.97,1.79,14.2,5.37,18.69C634.05,723.51,639.06,725.75,645.49,725.75z"/>
      <path d="M719.25,740c-2.78,0-4.9-0.77-6.36-2.3c-1.46-1.53-2.19-3.69-2.19-6.47v-55.46h-19.4c-2.27,0-4.02-0.62-5.26-1.86 c-1.24-1.24-1.86-2.96-1.86-5.15c0-2.26,0.62-4,1.86-5.21c1.24-1.21,2.99-1.81,5.26-1.81h55.79c2.26,0,4.02,0.6,5.26,1.81 c1.24,1.2,1.86,2.94,1.86,5.21c0,2.19-0.62,3.91-1.86,5.15c-1.24,1.24-3,1.86-5.26,1.86h-19.4v55.46c0,2.78-0.71,4.93-2.14,6.47 C724.13,739.23,722.03,740,719.25,740z"/>
      <path d="M770.11,740c-2.78,0-4.9-0.77-6.36-2.3c-1.46-1.53-2.19-3.69-2.19-6.47v-61.71c0-2.78,0.73-4.93,2.19-6.47 c1.46-1.53,3.58-2.3,6.36-2.3c2.7,0,4.79,0.77,6.25,2.3c1.46,1.53,2.19,3.69,2.19,6.47v61.71c0,2.78-0.71,4.93-2.14,6.47 C774.98,739.23,772.88,740,770.11,740z"/>
      <path d="M831.6,740.22c-8.33,0-15.45-1.64-21.37-4.93c-5.92-3.29-10.47-7.91-13.65-13.86c-3.18-5.96-4.77-12.99-4.77-21.1 c0-6.06,0.89-11.53,2.68-16.39c1.79-4.86,4.4-9.02,7.84-12.49c3.43-3.47,7.62-6.16,12.55-8.06c4.93-1.9,10.5-2.85,16.72-2.85 c3.65,0,7.36,0.46,11.12,1.37c3.76,0.91,7.03,2.21,9.81,3.89c1.83,1.02,3.07,2.3,3.73,3.83c0.66,1.53,0.86,3.07,0.6,4.6 c-0.26,1.53-0.88,2.85-1.86,3.95c-0.99,1.1-2.21,1.79-3.67,2.08c-1.46,0.29-3.11-0.03-4.93-0.99c-2.19-1.31-4.49-2.26-6.91-2.85 c-2.41-0.58-4.86-0.88-7.34-0.88c-4.9,0-9.01,0.97-12.33,2.9c-3.33,1.94-5.83,4.73-7.51,8.39c-1.68,3.65-2.52,8.15-2.52,13.48 c0,5.26,0.84,9.75,2.52,13.48c1.68,3.72,4.18,6.56,7.51,8.49c3.32,1.94,7.43,2.91,12.33,2.91c2.34,0,4.73-0.29,7.18-0.88 c2.45-0.58,4.8-1.5,7.07-2.74c1.9-0.95,3.6-1.3,5.1-1.04c1.5,0.26,2.74,0.91,3.73,1.97c0.99,1.06,1.61,2.32,1.86,3.78 c0.25,1.46,0.09,2.92-0.49,4.39c-0.58,1.46-1.68,2.7-3.29,3.72c-2.7,1.83-6.03,3.25-9.97,4.28 C839.38,739.71,835.47,740.22,831.6,740.22z"/>
      <path d="M894.84,740.22c-3.07,0-6.19-0.24-9.37-0.71c-3.18-0.48-6.21-1.15-9.1-2.03c-2.89-0.88-5.46-1.97-7.73-3.29 c-1.61-0.88-2.74-2.03-3.4-3.45c-0.66-1.43-0.9-2.87-0.71-4.33c0.18-1.46,0.73-2.76,1.64-3.89c0.91-1.13,2.08-1.87,3.51-2.19 c1.43-0.33,3.01-0.05,4.77,0.82c2.99,1.68,6.26,2.92,9.81,3.73c3.54,0.8,7.07,1.2,10.58,1.2c5.33,0,9.13-0.82,11.4-2.47 c2.26-1.64,3.4-3.71,3.4-6.19c0-2.12-0.8-3.8-2.41-5.04c-1.61-1.24-4.42-2.3-8.44-3.18l-12.38-2.63 c-7.02-1.46-12.22-3.96-15.62-7.51c-3.4-3.54-5.1-8.2-5.1-13.98c0-3.65,0.77-6.98,2.3-9.97c1.53-2.99,3.69-5.59,6.47-7.78 c2.78-2.19,6.08-3.87,9.92-5.04c3.84-1.17,8.05-1.75,12.66-1.75c4.09,0,8.11,0.49,12.06,1.48c3.94,0.99,7.42,2.43,10.41,4.33 c1.46,0.88,2.47,1.99,3.01,3.34c0.55,1.35,0.73,2.7,0.55,4.06c-0.18,1.35-0.73,2.54-1.64,3.56c-0.91,1.02-2.07,1.68-3.45,1.97 c-1.39,0.29-3.07-0.03-5.04-0.99c-2.41-1.24-4.97-2.16-7.67-2.74c-2.7-0.59-5.48-0.88-8.33-0.88c-3.07,0-5.68,0.4-7.84,1.2 c-2.16,0.8-3.8,1.94-4.93,3.4c-1.13,1.46-1.7,3.14-1.7,5.04c0,2.12,0.77,3.83,2.3,5.15c1.53,1.31,4.2,2.37,8,3.18l12.39,2.63 c7.16,1.53,12.5,4,16,7.4c3.51,3.4,5.26,7.88,5.26,13.43c0,3.65-0.73,6.96-2.19,9.92c-1.46,2.96-3.58,5.5-6.36,7.62 c-2.78,2.12-6.1,3.75-9.97,4.88C904.01,739.65,899.66,740.22,894.84,740.22z"/>
    </g>
    <g>
      <g>
        <linearGradient id="SVGID_1_" gradientUnits="userSpaceOnUse" x1="547.2835" y1="386.4699" x2="547.2835" y2="623.0163">
          <stop offset="0.2872" style="stop-color:#E72064"/>
          <stop offset="0.7647" style="stop-color:#74123E"/>
        </linearGradient>
        <polygon class="st1" points="539.7,429.25 535.74,423.88 554.87,409.76 558.83,415.13 &#9;&#9;&#9;"/>
      </g>
      <g>
        <linearGradient id="SVGID_2_" gradientUnits="userSpaceOnUse" x1="569.0081" y1="386.4699" x2="569.0081" y2="623.0163">
          <stop offset="0.2872" style="stop-color:#E72064"/>
          <stop offset="0.7647" style="stop-color:#74123E"/>
        </linearGradient>
        <polygon class="st2" points="566.58,432.22 564.79,413.92 571.44,413.27 573.22,431.57 &#9;&#9;&#9;"/>
      </g>
      <g>
        <linearGradient id="SVGID_3_" gradientUnits="userSpaceOnUse" x1="594.4866" y1="386.4699" x2="594.4866" y2="623.0163">
          <stop offset="0.2872" style="stop-color:#E72064"/>
          <stop offset="0.7647" style="stop-color:#74123E"/>
        </linearGradient>
        <polygon class="st3" points="590.52,437.2 585.4,432.91 598.46,417.36 603.57,421.65 &#9;&#9;&#9;"/>
      </g>
      <g>
        <linearGradient id="SVGID_4_" gradientUnits="userSpaceOnUse" x1="633.2863" y1="386.4699" x2="633.2863" y2="623.0163">
          <stop offset="0.2872" style="stop-color:#E72064"/>
          <stop offset="0.7647" style="stop-color:#74123E"/>
        </linearGradient>
        <polygon class="st4" points="639.87,417.79 625.74,415.74 626.7,409.14 640.83,411.19 &#9;&#9;&#9;"/>
      </g>
      <g>
        <linearGradient id="SVGID_5_" gradientUnits="userSpaceOnUse" x1="672.4436" y1="386.4699" x2="672.4436" y2="623.0163">
          <stop offset="0.2872" style="stop-color:#E72064"/>
          <stop offset="0.7647" style="stop-color:#74123E"/>
        </linearGradient>
        <polygon class="st5" points="668.64,465.08 664.62,459.75 676.25,450.98 680.26,456.31 &#9;&#9;&#9;"/>
      </g>
      <g>
        <linearGradient id="SVGID_6_" gradientUnits="userSpaceOnUse" x1="700.2477" y1="386.4699" x2="700.2477" y2="623.0163">
          <stop offset="0.2872" style="stop-color:#E72064"/>
          <stop offset="0.7647" style="stop-color:#74123E"/>
        </linearGradient>
        <polygon class="st6" points="700.88,480.75 693.37,460.72 699.62,458.38 707.13,478.4 &#9;&#9;&#9;"/>
      </g>
      <g>
        <linearGradient id="SVGID_7_" gradientUnits="userSpaceOnUse" x1="683.0236" y1="386.4699" x2="683.0236" y2="623.0163">
          <stop offset="0.2872" style="stop-color:#E72064"/>
          <stop offset="0.7647" style="stop-color:#74123E"/>
        </linearGradient>
        <polygon class="st7" points="669.61,524.78 665.56,519.48 696.43,495.88 700.49,501.18 &#9;&#9;&#9;"/>
      </g>
      <g>
        <linearGradient id="SVGID_8_" gradientUnits="userSpaceOnUse" x1="671.4609" y1="386.4699" x2="671.4609" y2="623.0163">
          <stop offset="0.2872" style="stop-color:#E72064"/>
          <stop offset="0.7647" style="stop-color:#74123E"/>
        </linearGradient>
        <polygon class="st8" points="656.9,570.94 653.48,565.22 686.02,545.73 689.45,551.46 &#9;&#9;&#9;"/>
      </g>
      <g>
        <linearGradient id="SVGID_9_" gradientUnits="userSpaceOnUse" x1="638.3823" y1="386.4699" x2="638.3823" y2="623.0163">
          <stop offset="0.2872" style="stop-color:#E72064"/>
          <stop offset="0.7647" style="stop-color:#74123E"/>
        </linearGradient>
        <polygon class="st9" points="636.92,611.97 630.54,610.01 639.84,579.8 646.22,581.76 &#9;&#9;&#9;"/>
      </g>
      <g>
        <linearGradient id="SVGID_10_" gradientUnits="userSpaceOnUse" x1="611.8608" y1="386.4699" x2="611.8608" y2="623.0163">
          <stop offset="0.2872" style="stop-color:#E72064"/>
          <stop offset="0.7647" style="stop-color:#74123E"/>
        </linearGradient>
        <polygon class="st10" points="621.47,611.48 596.55,570.53 602.26,567.06 627.17,608.01 &#9;&#9;&#9;"/>
      </g>
      <g>
        <linearGradient id="SVGID_11_" gradientUnits="userSpaceOnUse" x1="635.5214" y1="386.4699" x2="635.5214" y2="623.0163">
          <stop offset="0.2872" style="stop-color:#E72064"/>
          <stop offset="0.7647" style="stop-color:#74123E"/>
        </linearGradient>
        <polygon class="st11" points="638.57,565.19 626.41,538.91 632.47,536.11 644.63,562.39 &#9;&#9;&#9;"/>
      </g>
      <g>
        <linearGradient id="SVGID_12_" gradientUnits="userSpaceOnUse" x1="607.0923" y1="386.4699" x2="607.0923" y2="623.0163">
          <stop offset="0.2872" style="stop-color:#E72064"/>
          <stop offset="0.7647" style="stop-color:#74123E"/>
        </linearGradient>
        <polygon class="st12" points="612.71,523.67 597.33,511.51 601.47,506.28 616.85,518.44 &#9;&#9;&#9;"/>
      </g>
      <g>
        <linearGradient id="SVGID_13_" gradientUnits="userSpaceOnUse" x1="607.8077" y1="386.4699" x2="607.8077" y2="623.0163">
          <stop offset="0.2872" style="stop-color:#E72064"/>
          <stop offset="0.7647" style="stop-color:#74123E"/>
        </linearGradient>
        <polygon class="st13" points="602.47,497.86 599.2,492.04 613.14,484.18 616.42,489.99 &#9;&#9;&#9;"/>
      </g>
      <g>
        <linearGradient id="SVGID_14_" gradientUnits="userSpaceOnUse" x1="619.5187" y1="386.4699" x2="619.5187" y2="623.0163">
          <stop offset="0.2872" style="stop-color:#E72064"/>
          <stop offset="0.7647" style="stop-color:#74123E"/>
        </linearGradient>
        <polygon class="st14" points="620.53,458.04 613.56,450.35 618.5,445.86 625.48,453.55 &#9;&#9;&#9;"/>
      </g>
      <g>
        <linearGradient id="SVGID_15_" gradientUnits="userSpaceOnUse" x1="580.8983" y1="386.4699" x2="580.8983" y2="623.0163">
          <stop offset="0.2872" style="stop-color:#E72064"/>
          <stop offset="0.7647" style="stop-color:#74123E"/>
        </linearGradient>
        <polygon class="st15" points="580.53,486.07 574.99,470.69 581.27,468.43 586.81,483.81 &#9;&#9;&#9;"/>
      </g>
      <g>
        <linearGradient id="SVGID_16_" gradientUnits="userSpaceOnUse" x1="553.2734" y1="386.4699" x2="553.2734" y2="623.0163">
          <stop offset="0.2872" style="stop-color:#E72064"/>
          <stop offset="0.7647" style="stop-color:#74123E"/>
        </linearGradient>
        <polygon class="st16" points="550.12,481.71 544.99,477.44 556.43,463.67 561.56,467.94 &#9;&#9;&#9;"/>
      </g>
      <g>
        <linearGradient id="SVGID_17_" gradientUnits="userSpaceOnUse" x1="570.707" y1="386.4699" x2="570.707" y2="623.0163">
          <stop offset="0.2872" style="stop-color:#E72064"/>
          <stop offset="0.7647" style="stop-color:#74123E"/>
        </linearGradient>
        <polygon class="st17" points="567.64,526.05 562.5,521.79 573.77,508.2 578.91,512.46 &#9;&#9;&#9;"/>
      </g>
      <g>
        <linearGradient id="SVGID_18_" gradientUnits="userSpaceOnUse" x1="535.4227" y1="386.4699" x2="535.4227" y2="623.0163">
          <stop offset="0.2872" style="stop-color:#E72064"/>
          <stop offset="0.7647" style="stop-color:#74123E"/>
        </linearGradient>
        <polygon class="st18" points="544.32,529.1 524.71,523.55 526.53,517.13 546.13,522.67 &#9;&#9;&#9;"/>
      </g>
      <g>
        <linearGradient id="SVGID_19_" gradientUnits="userSpaceOnUse" x1="508.5735" y1="386.4699" x2="508.5735" y2="623.0163">
          <stop offset="0.2872" style="stop-color:#E72064"/>
          <stop offset="0.7647" style="stop-color:#74123E"/>
        </linearGradient>
        <polygon class="st19" points="510.12,510.5 501.18,494.23 507.03,491.02 515.97,507.29 &#9;&#9;&#9;"/>
      </g>
      <g>
        <linearGradient id="SVGID_20_" gradientUnits="userSpaceOnUse" x1="494.3887" y1="386.4699" x2="494.3887" y2="623.0163">
          <stop offset="0.2872" style="stop-color:#E72064"/>
          <stop offset="0.7647" style="stop-color:#74123E"/>
        </linearGradient>
        <circle class="st20" cx="494.39" cy="474.57" r="23.6"/>
        <linearGradient id="SVGID_21_" gradientUnits="userSpaceOnUse" x1="642.4352" y1="386.4699" x2="642.4352" y2="623.0163">
          <stop offset="0.2872" style="stop-color:#E72064"/>
          <stop offset="0.7647" style="stop-color:#74123E"/>
        </linearGradient>
        <circle class="st21" cx="642.44" cy="478.38" r="31.71"/>
        <linearGradient id="SVGID_22_" gradientUnits="userSpaceOnUse" x1="572.584" y1="386.4699" x2="572.584" y2="623.0163">
          <stop offset="0.2872" style="stop-color:#E72064"/>
          <stop offset="0.7647" style="stop-color:#74123E"/>
        </linearGradient>
        <circle class="st22" cx="572.58" cy="450.97" r="23.6"/>
        <linearGradient id="SVGID_23_" gradientUnits="userSpaceOnUse" x1="705.6113" y1="386.4699" x2="705.6113" y2="623.0163">
          <stop offset="0.2872" style="stop-color:#E72064"/>
          <stop offset="0.7647" style="stop-color:#74123E"/>
        </linearGradient>
        <circle class="st23" cx="705.61" cy="537.51" r="23.6"/>
        <linearGradient id="SVGID_24_" gradientUnits="userSpaceOnUse" x1="517.9904" y1="386.4699" x2="517.9904" y2="623.0163">
          <stop offset="0.2872" style="stop-color:#E72064"/>
          <stop offset="0.7647" style="stop-color:#74123E"/>
        </linearGradient>
        <circle class="st24" cx="517.99" cy="517.6" r="12.28"/>
        <linearGradient id="SVGID_25_" gradientUnits="userSpaceOnUse" x1="609.8936" y1="386.4699" x2="609.8936" y2="623.0163">
          <stop offset="0.2872" style="stop-color:#E72064"/>
          <stop offset="0.7647" style="stop-color:#74123E"/>
        </linearGradient>
        <circle class="st25" cx="609.89" cy="442.74" r="12.28"/>
        <linearGradient id="SVGID_26_" gradientUnits="userSpaceOnUse" x1="646.0112" y1="386.4699" x2="646.0112" y2="623.0163">
          <stop offset="0.2872" style="stop-color:#E72064"/>
          <stop offset="0.7647" style="stop-color:#74123E"/>
        </linearGradient>
        <circle class="st26" cx="646.01" cy="571.96" r="12.28"/>
        <linearGradient id="SVGID_27_" gradientUnits="userSpaceOnUse" x1="659.9576" y1="386.4699" x2="659.9576" y2="623.0163">
          <stop offset="0.2872" style="stop-color:#E72064"/>
          <stop offset="0.7647" style="stop-color:#74123E"/>
        </linearGradient>
        <circle class="st27" cx="659.96" cy="527.26" r="12.28"/>
        <linearGradient id="SVGID_28_" gradientUnits="userSpaceOnUse" x1="630.7536" y1="386.4699" x2="630.7536" y2="623.0163">
          <stop offset="0.2872" style="stop-color:#E72064"/>
          <stop offset="0.7647" style="stop-color:#74123E"/>
        </linearGradient>
        <circle class="st28" cx="630.75" cy="618.44" r="12.28"/>
        <linearGradient id="SVGID_29_" gradientUnits="userSpaceOnUse" x1="556.7303" y1="386.4699" x2="556.7303" y2="623.0163">
          <stop offset="0.2872" style="stop-color:#E72064"/>
          <stop offset="0.7647" style="stop-color:#74123E"/>
        </linearGradient>
        <circle class="st29" cx="556.73" cy="530.95" r="14.42"/>
        <linearGradient id="SVGID_30_" gradientUnits="userSpaceOnUse" x1="540.0424" y1="386.4699" x2="540.0424" y2="623.0163">
          <stop offset="0.2872" style="stop-color:#E72064"/>
          <stop offset="0.7647" style="stop-color:#74123E"/>
        </linearGradient>
        <circle class="st30" cx="540.04" cy="488.04" r="14.42"/>
        <linearGradient id="SVGID_31_" gradientUnits="userSpaceOnUse" x1="653.1633" y1="386.4699" x2="653.1633" y2="623.0163">
          <stop offset="0.2872" style="stop-color:#E72064"/>
          <stop offset="0.7647" style="stop-color:#74123E"/>
        </linearGradient>
        <circle class="st31" cx="653.16" cy="417.47" r="14.42"/>
        <linearGradient id="SVGID_32_" gradientUnits="userSpaceOnUse" x1="565.7896" y1="386.4699" x2="565.7896" y2="623.0163">
          <stop offset="0.2872" style="stop-color:#E72064"/>
          <stop offset="0.7647" style="stop-color:#74123E"/>
        </linearGradient>
        <circle class="st32" cx="565.79" cy="404.12" r="14.42"/>
        <linearGradient id="SVGID_33_" gradientUnits="userSpaceOnUse" x1="624.3168" y1="386.4699" x2="624.3168" y2="623.0163">
          <stop offset="0.2872" style="stop-color:#E72064"/>
          <stop offset="0.7647" style="stop-color:#74123E"/>
        </linearGradient>
        <circle class="st33" cx="624.32" cy="528.57" r="14.42"/>
        <linearGradient id="SVGID_34_" gradientUnits="userSpaceOnUse" x1="708.4721" y1="386.4699" x2="708.4721" y2="623.0163">
          <stop offset="0.2872" style="stop-color:#E72064"/>
          <stop offset="0.7647" style="stop-color:#74123E"/>
        </linearGradient>
        <circle class="st34" cx="708.47" cy="490.9" r="14.42"/>
        <linearGradient id="SVGID_35_" gradientUnits="userSpaceOnUse" x1="592.252" y1="386.4699" x2="592.252" y2="623.0163">
          <stop offset="0.2872" style="stop-color:#E72064"/>
          <stop offset="0.7647" style="stop-color:#74123E"/>
        </linearGradient>
        <circle class="st35" cx="592.25" cy="555.74" r="18.24"/>
        <linearGradient id="SVGID_36_" gradientUnits="userSpaceOnUse" x1="587.9608" y1="386.4699" x2="587.9608" y2="623.0163">
          <stop offset="0.2872" style="stop-color:#E72064"/>
          <stop offset="0.7647" style="stop-color:#74123E"/>
        </linearGradient>
        <circle class="st36" cx="587.96" cy="500.2" r="18.24"/>
        <linearGradient id="SVGID_37_" gradientUnits="userSpaceOnUse" x1="691.6649" y1="386.4699" x2="691.6649" y2="623.0163">
          <stop offset="0.2872" style="stop-color:#E72064"/>
          <stop offset="0.7647" style="stop-color:#74123E"/>
        </linearGradient>
        <circle class="st37" cx="691.66" cy="445.6" r="18.24"/>
        <linearGradient id="SVGID_38_" gradientUnits="userSpaceOnUse" x1="609.8936" y1="386.4699" x2="609.8936" y2="623.0163">
          <stop offset="0.2872" style="stop-color:#E72064"/>
          <stop offset="0.7647" style="stop-color:#74123E"/>
        </linearGradient>
        <circle class="st38" cx="609.89" cy="410.08" r="18.24"/>
        <linearGradient id="SVGID_39_" gradientUnits="userSpaceOnUse" x1="525.6191" y1="386.4699" x2="525.6191" y2="623.0163">
          <stop offset="0.2872" style="stop-color:#E72064"/>
          <stop offset="0.7647" style="stop-color:#74123E"/>
        </linearGradient>
        <circle class="st39" cx="525.62" cy="436.78" r="18.24"/>
      </g>
    </g>
  </g>
</svg>