<?xml version="1.0" encoding="utf-8"?>
<svg viewBox="274.5 302.907 613.295 546.913" xmlns="http://www.w3.org/2000/svg">
  <defs>
    <style type="text/css">
	.st0{fill:#E72064;}
	.st1{fill:url(#SVGID_1_);}
	.st2{fill:url(#SVGID_2_);}
	.st3{fill:url(#SVGID_3_);}
	.st4{fill:url(#SVGID_4_);}
	.st5{fill:url(#SVGID_5_);}
	.st6{fill:url(#SVGID_6_);}
	.st7{fill:url(#SVGID_7_);}
	.st8{fill:url(#SVGID_8_);}
	.st9{fill:url(#SVGID_9_);}
	.st10{fill:url(#SVGID_10_);}
	.st11{fill:url(#SVGID_11_);}
	.st12{fill:url(#SVGID_12_);}
	.st13{fill:url(#SVGID_13_);}
	.st14{fill:url(#SVGID_14_);}
	.st15{fill:url(#SVGID_15_);}
	.st16{fill:url(#SVGID_16_);}
	.st17{fill:url(#SVGID_17_);}
	.st18{fill:url(#SVGID_18_);}
	.st19{fill:url(#SVGID_19_);}
	.st20{fill:url(#SVGID_20_);}
	.st21{fill:url(#SVGID_21_);}
	.st22{fill:url(#SVGID_22_);}
	.st23{fill:url(#SVGID_23_);}
	.st24{fill:url(#SVGID_24_);}
	.st25{fill:url(#SVGID_25_);}
	.st26{fill:url(#SVGID_26_);}
	.st27{fill:url(#SVGID_27_);}
	.st28{fill:url(#SVGID_28_);}
	.st29{fill:url(#SVGID_29_);}
	.st30{fill:url(#SVGID_30_);}
	.st31{fill:url(#SVGID_31_);}
	.st32{fill:url(#SVGID_32_);}
	.st33{fill:url(#SVGID_33_);}
	.st34{fill:url(#SVGID_34_);}
	.st35{fill:url(#SVGID_35_);}
	.st36{fill:url(#SVGID_36_);}
	.st37{fill:url(#SVGID_37_);}
	.st38{fill:url(#SVGID_38_);}
	.st39{fill:url(#SVGID_39_);}
</style>
  </defs>
  <g style="" transform="matrix(2.37325, 0, 0, 2.269159, -842.802063, -581.38385)">
    <g>
      <g/>
    </g>
    <g/>
    <g>
      <g>
        <linearGradient id="SVGID_1_" gradientUnits="userSpaceOnUse" x1="547.2835" y1="386.4699" x2="547.2835" y2="623.0163">
          <stop offset="0.2872" style="stop-color:#E72064"/>
          <stop offset="0.7647" style="stop-color:#74123E"/>
        </linearGradient>
        <polygon class="st1" points="539.7,429.25 535.74,423.88 554.87,409.76 558.83,415.13 &#9;&#9;&#9;"/>
      </g>
      <g>
        <linearGradient id="SVGID_2_" gradientUnits="userSpaceOnUse" x1="569.0081" y1="386.4699" x2="569.0081" y2="623.0163">
          <stop offset="0.2872" style="stop-color:#E72064"/>
          <stop offset="0.7647" style="stop-color:#74123E"/>
        </linearGradient>
        <polygon class="st2" points="566.58,432.22 564.79,413.92 571.44,413.27 573.22,431.57 &#9;&#9;&#9;"/>
      </g>
      <g>
        <linearGradient id="SVGID_3_" gradientUnits="userSpaceOnUse" x1="594.4866" y1="386.4699" x2="594.4866" y2="623.0163">
          <stop offset="0.2872" style="stop-color:#E72064"/>
          <stop offset="0.7647" style="stop-color:#74123E"/>
        </linearGradient>
        <polygon class="st3" points="590.52,437.2 585.4,432.91 598.46,417.36 603.57,421.65 &#9;&#9;&#9;"/>
      </g>
      <g>
        <linearGradient id="SVGID_4_" gradientUnits="userSpaceOnUse" x1="633.2863" y1="386.4699" x2="633.2863" y2="623.0163">
          <stop offset="0.2872" style="stop-color:#E72064"/>
          <stop offset="0.7647" style="stop-color:#74123E"/>
        </linearGradient>
        <polygon class="st4" points="639.87,417.79 625.74,415.74 626.7,409.14 640.83,411.19 &#9;&#9;&#9;"/>
      </g>
      <g>
        <linearGradient id="SVGID_5_" gradientUnits="userSpaceOnUse" x1="672.4436" y1="386.4699" x2="672.4436" y2="623.0163">
          <stop offset="0.2872" style="stop-color:#E72064"/>
          <stop offset="0.7647" style="stop-color:#74123E"/>
        </linearGradient>
        <polygon class="st5" points="668.64,465.08 664.62,459.75 676.25,450.98 680.26,456.31 &#9;&#9;&#9;"/>
      </g>
      <g>
        <linearGradient id="SVGID_6_" gradientUnits="userSpaceOnUse" x1="700.2477" y1="386.4699" x2="700.2477" y2="623.0163">
          <stop offset="0.2872" style="stop-color:#E72064"/>
          <stop offset="0.7647" style="stop-color:#74123E"/>
        </linearGradient>
        <polygon class="st6" points="700.88,480.75 693.37,460.72 699.62,458.38 707.13,478.4 &#9;&#9;&#9;"/>
      </g>
      <g>
        <linearGradient id="SVGID_7_" gradientUnits="userSpaceOnUse" x1="683.0236" y1="386.4699" x2="683.0236" y2="623.0163">
          <stop offset="0.2872" style="stop-color:#E72064"/>
          <stop offset="0.7647" style="stop-color:#74123E"/>
        </linearGradient>
        <polygon class="st7" points="669.61,524.78 665.56,519.48 696.43,495.88 700.49,501.18 &#9;&#9;&#9;"/>
      </g>
      <g>
        <linearGradient id="SVGID_8_" gradientUnits="userSpaceOnUse" x1="671.4609" y1="386.4699" x2="671.4609" y2="623.0163">
          <stop offset="0.2872" style="stop-color:#E72064"/>
          <stop offset="0.7647" style="stop-color:#74123E"/>
        </linearGradient>
        <polygon class="st8" points="656.9,570.94 653.48,565.22 686.02,545.73 689.45,551.46 &#9;&#9;&#9;"/>
      </g>
      <g>
        <linearGradient id="SVGID_9_" gradientUnits="userSpaceOnUse" x1="638.3823" y1="386.4699" x2="638.3823" y2="623.0163">
          <stop offset="0.2872" style="stop-color:#E72064"/>
          <stop offset="0.7647" style="stop-color:#74123E"/>
        </linearGradient>
        <polygon class="st9" points="636.92,611.97 630.54,610.01 639.84,579.8 646.22,581.76 &#9;&#9;&#9;"/>
      </g>
      <g>
        <linearGradient id="SVGID_10_" gradientUnits="userSpaceOnUse" x1="611.8608" y1="386.4699" x2="611.8608" y2="623.0163">
          <stop offset="0.2872" style="stop-color:#E72064"/>
          <stop offset="0.7647" style="stop-color:#74123E"/>
        </linearGradient>
        <polygon class="st10" points="621.47,611.48 596.55,570.53 602.26,567.06 627.17,608.01 &#9;&#9;&#9;"/>
      </g>
      <g>
        <linearGradient id="SVGID_11_" gradientUnits="userSpaceOnUse" x1="635.5214" y1="386.4699" x2="635.5214" y2="623.0163">
          <stop offset="0.2872" style="stop-color:#E72064"/>
          <stop offset="0.7647" style="stop-color:#74123E"/>
        </linearGradient>
        <polygon class="st11" points="638.57,565.19 626.41,538.91 632.47,536.11 644.63,562.39 &#9;&#9;&#9;"/>
      </g>
      <g>
        <linearGradient id="SVGID_12_" gradientUnits="userSpaceOnUse" x1="607.0923" y1="386.4699" x2="607.0923" y2="623.0163">
          <stop offset="0.2872" style="stop-color:#E72064"/>
          <stop offset="0.7647" style="stop-color:#74123E"/>
        </linearGradient>
        <polygon class="st12" points="612.71,523.67 597.33,511.51 601.47,506.28 616.85,518.44 &#9;&#9;&#9;"/>
      </g>
      <g>
        <linearGradient id="SVGID_13_" gradientUnits="userSpaceOnUse" x1="607.8077" y1="386.4699" x2="607.8077" y2="623.0163">
          <stop offset="0.2872" style="stop-color:#E72064"/>
          <stop offset="0.7647" style="stop-color:#74123E"/>
        </linearGradient>
        <polygon class="st13" points="602.47,497.86 599.2,492.04 613.14,484.18 616.42,489.99 &#9;&#9;&#9;"/>
      </g>
      <g>
        <linearGradient id="SVGID_14_" gradientUnits="userSpaceOnUse" x1="619.5187" y1="386.4699" x2="619.5187" y2="623.0163">
          <stop offset="0.2872" style="stop-color:#E72064"/>
          <stop offset="0.7647" style="stop-color:#74123E"/>
        </linearGradient>
        <polygon class="st14" points="620.53,458.04 613.56,450.35 618.5,445.86 625.48,453.55 &#9;&#9;&#9;"/>
      </g>
      <g>
        <linearGradient id="SVGID_15_" gradientUnits="userSpaceOnUse" x1="580.8983" y1="386.4699" x2="580.8983" y2="623.0163">
          <stop offset="0.2872" style="stop-color:#E72064"/>
          <stop offset="0.7647" style="stop-color:#74123E"/>
        </linearGradient>
        <polygon class="st15" points="580.53,486.07 574.99,470.69 581.27,468.43 586.81,483.81 &#9;&#9;&#9;"/>
      </g>
      <g>
        <linearGradient id="SVGID_16_" gradientUnits="userSpaceOnUse" x1="553.2734" y1="386.4699" x2="553.2734" y2="623.0163">
          <stop offset="0.2872" style="stop-color:#E72064"/>
          <stop offset="0.7647" style="stop-color:#74123E"/>
        </linearGradient>
        <polygon class="st16" points="550.12,481.71 544.99,477.44 556.43,463.67 561.56,467.94 &#9;&#9;&#9;"/>
      </g>
      <g>
        <linearGradient id="SVGID_17_" gradientUnits="userSpaceOnUse" x1="570.707" y1="386.4699" x2="570.707" y2="623.0163">
          <stop offset="0.2872" style="stop-color:#E72064"/>
          <stop offset="0.7647" style="stop-color:#74123E"/>
        </linearGradient>
        <polygon class="st17" points="567.64,526.05 562.5,521.79 573.77,508.2 578.91,512.46 &#9;&#9;&#9;"/>
      </g>
      <g>
        <linearGradient id="SVGID_18_" gradientUnits="userSpaceOnUse" x1="535.4227" y1="386.4699" x2="535.4227" y2="623.0163">
          <stop offset="0.2872" style="stop-color:#E72064"/>
          <stop offset="0.7647" style="stop-color:#74123E"/>
        </linearGradient>
        <polygon class="st18" points="544.32,529.1 524.71,523.55 526.53,517.13 546.13,522.67 &#9;&#9;&#9;"/>
      </g>
      <g>
        <linearGradient id="SVGID_19_" gradientUnits="userSpaceOnUse" x1="508.5735" y1="386.4699" x2="508.5735" y2="623.0163">
          <stop offset="0.2872" style="stop-color:#E72064"/>
          <stop offset="0.7647" style="stop-color:#74123E"/>
        </linearGradient>
        <polygon class="st19" points="510.12,510.5 501.18,494.23 507.03,491.02 515.97,507.29 &#9;&#9;&#9;"/>
      </g>
      <g>
        <linearGradient id="SVGID_20_" gradientUnits="userSpaceOnUse" x1="494.3887" y1="386.4699" x2="494.3887" y2="623.0163">
          <stop offset="0.2872" style="stop-color:#E72064"/>
          <stop offset="0.7647" style="stop-color:#74123E"/>
        </linearGradient>
        <circle class="st20" cx="494.39" cy="474.57" r="23.6"/>
        <linearGradient id="SVGID_21_" gradientUnits="userSpaceOnUse" x1="642.4352" y1="386.4699" x2="642.4352" y2="623.0163">
          <stop offset="0.2872" style="stop-color:#E72064"/>
          <stop offset="0.7647" style="stop-color:#74123E"/>
        </linearGradient>
        <circle class="st21" cx="642.44" cy="478.38" r="31.71"/>
        <linearGradient id="SVGID_22_" gradientUnits="userSpaceOnUse" x1="572.584" y1="386.4699" x2="572.584" y2="623.0163">
          <stop offset="0.2872" style="stop-color:#E72064"/>
          <stop offset="0.7647" style="stop-color:#74123E"/>
        </linearGradient>
        <circle class="st22" cx="572.58" cy="450.97" r="23.6"/>
        <linearGradient id="SVGID_23_" gradientUnits="userSpaceOnUse" x1="705.6113" y1="386.4699" x2="705.6113" y2="623.0163">
          <stop offset="0.2872" style="stop-color:#E72064"/>
          <stop offset="0.7647" style="stop-color:#74123E"/>
        </linearGradient>
        <circle class="st23" cx="705.61" cy="537.51" r="23.6"/>
        <linearGradient id="SVGID_24_" gradientUnits="userSpaceOnUse" x1="517.9904" y1="386.4699" x2="517.9904" y2="623.0163">
          <stop offset="0.2872" style="stop-color:#E72064"/>
          <stop offset="0.7647" style="stop-color:#74123E"/>
        </linearGradient>
        <circle class="st24" cx="517.99" cy="517.6" r="12.28"/>
        <linearGradient id="SVGID_25_" gradientUnits="userSpaceOnUse" x1="609.8936" y1="386.4699" x2="609.8936" y2="623.0163">
          <stop offset="0.2872" style="stop-color:#E72064"/>
          <stop offset="0.7647" style="stop-color:#74123E"/>
        </linearGradient>
        <circle class="st25" cx="609.89" cy="442.74" r="12.28"/>
        <linearGradient id="SVGID_26_" gradientUnits="userSpaceOnUse" x1="646.0112" y1="386.4699" x2="646.0112" y2="623.0163">
          <stop offset="0.2872" style="stop-color:#E72064"/>
          <stop offset="0.7647" style="stop-color:#74123E"/>
        </linearGradient>
        <circle class="st26" cx="646.01" cy="571.96" r="12.28"/>
        <linearGradient id="SVGID_27_" gradientUnits="userSpaceOnUse" x1="659.9576" y1="386.4699" x2="659.9576" y2="623.0163">
          <stop offset="0.2872" style="stop-color:#E72064"/>
          <stop offset="0.7647" style="stop-color:#74123E"/>
        </linearGradient>
        <circle class="st27" cx="659.96" cy="527.26" r="12.28"/>
        <linearGradient id="SVGID_28_" gradientUnits="userSpaceOnUse" x1="630.7536" y1="386.4699" x2="630.7536" y2="623.0163">
          <stop offset="0.2872" style="stop-color:#E72064"/>
          <stop offset="0.7647" style="stop-color:#74123E"/>
        </linearGradient>
        <circle class="st28" cx="630.75" cy="618.44" r="12.28"/>
        <linearGradient id="SVGID_29_" gradientUnits="userSpaceOnUse" x1="556.7303" y1="386.4699" x2="556.7303" y2="623.0163">
          <stop offset="0.2872" style="stop-color:#E72064"/>
          <stop offset="0.7647" style="stop-color:#74123E"/>
        </linearGradient>
        <circle class="st29" cx="556.73" cy="530.95" r="14.42"/>
        <linearGradient id="SVGID_30_" gradientUnits="userSpaceOnUse" x1="540.0424" y1="386.4699" x2="540.0424" y2="623.0163">
          <stop offset="0.2872" style="stop-color:#E72064"/>
          <stop offset="0.7647" style="stop-color:#74123E"/>
        </linearGradient>
        <circle class="st30" cx="540.04" cy="488.04" r="14.42"/>
        <linearGradient id="SVGID_31_" gradientUnits="userSpaceOnUse" x1="653.1633" y1="386.4699" x2="653.1633" y2="623.0163">
          <stop offset="0.2872" style="stop-color:#E72064"/>
          <stop offset="0.7647" style="stop-color:#74123E"/>
        </linearGradient>
        <circle class="st31" cx="653.16" cy="417.47" r="14.42"/>
        <linearGradient id="SVGID_32_" gradientUnits="userSpaceOnUse" x1="565.7896" y1="386.4699" x2="565.7896" y2="623.0163">
          <stop offset="0.2872" style="stop-color:#E72064"/>
          <stop offset="0.7647" style="stop-color:#74123E"/>
        </linearGradient>
        <circle class="st32" cx="565.79" cy="404.12" r="14.42"/>
        <linearGradient id="SVGID_33_" gradientUnits="userSpaceOnUse" x1="624.3168" y1="386.4699" x2="624.3168" y2="623.0163">
          <stop offset="0.2872" style="stop-color:#E72064"/>
          <stop offset="0.7647" style="stop-color:#74123E"/>
        </linearGradient>
        <circle class="st33" cx="624.32" cy="528.57" r="14.42"/>
        <linearGradient id="SVGID_34_" gradientUnits="userSpaceOnUse" x1="708.4721" y1="386.4699" x2="708.4721" y2="623.0163">
          <stop offset="0.2872" style="stop-color:#E72064"/>
          <stop offset="0.7647" style="stop-color:#74123E"/>
        </linearGradient>
        <circle class="st34" cx="708.47" cy="490.9" r="14.42"/>
        <linearGradient id="SVGID_35_" gradientUnits="userSpaceOnUse" x1="592.252" y1="386.4699" x2="592.252" y2="623.0163">
          <stop offset="0.2872" style="stop-color:#E72064"/>
          <stop offset="0.7647" style="stop-color:#74123E"/>
        </linearGradient>
        <circle class="st35" cx="592.25" cy="555.74" r="18.24"/>
        <linearGradient id="SVGID_36_" gradientUnits="userSpaceOnUse" x1="587.9608" y1="386.4699" x2="587.9608" y2="623.0163">
          <stop offset="0.2872" style="stop-color:#E72064"/>
          <stop offset="0.7647" style="stop-color:#74123E"/>
        </linearGradient>
        <circle class="st36" cx="587.96" cy="500.2" r="18.24"/>
        <linearGradient id="SVGID_37_" gradientUnits="userSpaceOnUse" x1="691.6649" y1="386.4699" x2="691.6649" y2="623.0163">
          <stop offset="0.2872" style="stop-color:#E72064"/>
          <stop offset="0.7647" style="stop-color:#74123E"/>
        </linearGradient>
        <circle class="st37" cx="691.66" cy="445.6" r="18.24"/>
        <linearGradient id="SVGID_38_" gradientUnits="userSpaceOnUse" x1="609.8936" y1="386.4699" x2="609.8936" y2="623.0163">
          <stop offset="0.2872" style="stop-color:#E72064"/>
          <stop offset="0.7647" style="stop-color:#74123E"/>
        </linearGradient>
        <circle class="st38" cx="609.89" cy="410.08" r="18.24"/>
        <linearGradient id="SVGID_39_" gradientUnits="userSpaceOnUse" x1="525.6191" y1="386.4699" x2="525.6191" y2="623.0163">
          <stop offset="0.2872" style="stop-color:#E72064"/>
          <stop offset="0.7647" style="stop-color:#74123E"/>
        </linearGradient>
        <circle class="st39" cx="525.62" cy="436.78" r="18.24"/>
      </g>
    </g>
  </g>
</svg>